# xmcd
#
# Track frame offsets:
# 150
# 15498
# 29753
# 53200
# 73119
# 82382
# 102537
# 126917
#
# Disc length: 1939 seconds
#
# Revision: 0
# Processed by: cddbd v1.5.2PL0 Copyright (c) Steve Scherf et al.
# Submitted via: Audion 3.0.2 (http://www.panic.com/audion/)
#
DISCID=75079108
DTITLE=Tim Holehouse - Grit
DYEAR=1900
DGENRE=
TTITLE0=Blood to spill
TTITLE1=Creeping Death
TTITLE2=The Prisoner
TTITLE3=Broken Bones
TTITLE4=The Devil went back down to Georgia
TTITLE5=Into Mexico
TTITLE6=Rogues Gallery
TTITLE7=Long road to nowhere
EXTD=
EXTT0=
EXTT1=
EXTT2=
EXTT3=
EXTT4=
EXTT5=
EXTT6=
EXTT7=
PLAYORDER=
